# AST/ASF file generated using VICON BodyLanguage
# -----------------------------------------------
:version 1.10
:name VICON
:units
  mass 1.0
  length 0.45
  angle deg
:documentation
   .ast/.asf automatically generated from VICON data using
   VICON BodyBuilder and BodyLanguage model FoxedUp or BRILLIANT.MOD
:root
   order TX TY TZ RX RY RZ
   axis XYZ
   position 0 0 0  
   orientation 0 0 0 
:bonedata
  begin
     id 1 
     name lhipjoint
     direction 0.623415 -0.642378 0.445763 
     length 2.49859 
     axis 0 0 0  XYZ
  end
  begin
     id 2 
     name lfemur
     direction 0.34202 -0.939693 0  
     length 6.69689  
     axis 0 0 20  XYZ
    dof rx ry rz
    limits (-160.0 20.0)
           (-70.0 70.0)
           (-60.0 70.0)
  end
  begin
     id 3 
     name ltibia
     direction 0.34202 -0.939693 0   
     length 7.37574   
     axis 0 0 20   XYZ
    dof rx
    limits (-10.0 170.0)
  end
  begin
     id 4 
     name lfoot
     direction 0.084323 -0.231675 0.969132   
     length 2.09111   
     axis -90 7.62852e-016 20   XYZ
    dof rx rz
    limits (-45.0 90.0)
           (-70.0 20.0)
  end
  begin
     id 5 
     name ltoes
     direction 1.5357e-011 -4.21957e-011 1   
     length 1.04989   
     axis -90 7.62852e-016 20   XYZ
    dof rx
    limits (-90.0 20.0)
  end
  begin
     id 6 
     name rhipjoint
     direction -0.605402 -0.653903 0.45376   
     length 2.45455  
     axis 0 0 0  XYZ 
  end
  begin
     id 7 
     name rfemur
     direction -0.34202 -0.939693 0   
     length 6.64523   
     axis 0 0 -20   XYZ
    dof rx ry rz
    limits (-160.0 20.0)
           (-70.0 70.0)
           (-70.0 60.0)
  end
  begin
     id 8 
     name rtibia
     direction -0.34202 -0.939693 0   
     length 7.3339   
     axis 0 0 -20   XYZ
    dof rx
    limits (-10.0 170.0)
 end
 begin
     id 9 
     name rfoot
     direction -0.120854 -0.332043 0.93549   
     length 2.23135  
     axis -90 -7.62852e-016 -20   XYZ
    dof rx rz
    limits (-45.0 90.0)
           (-20.0 70.0)
  end
  begin
     id 10 
     name rtoes
     direction -1.53563e-011 -4.21914e-011 1   
     length 1.10614   
     axis -90 -7.62852e-016 -20   XYZ
    dof rx
    limits (-90.0 20.0)
  end
  begin
     id 11 
     name lowerback
     direction 0.0319682 0.998615 -0.0417941   
     length 2.02718   
     axis 0 0 0   XYZ
    dof rx ry rz
    limits (-20.0 45.0)
           (-30.0 30.0)
           (-30.0 30.0)
  end
  begin
     id 12 
     name upperback
     direction 7.63181e-005 0.995808 0.0914691   
     length 1.97539   
     axis 0 0 0   XYZ
    dof rx ry rz
    limits (-20.0 45.0)
           (-30.0 30.0)
           (-30.0 30.0)
  end
  begin
     id 13 
     name thorax
     direction -0.016423 0.993627 0.111514   
     length 2.00349   
     axis 0 0 0   XYZ
    dof rx ry rz
    limits (-20.0 45.0)
           (-30.0 30.0)
           (-30.0 30.0)
  end
  begin
     id 14 
     name lowerneck
     direction -0.174763 0.981668 -0.0760716   
     length 1.71436   
     axis 0 0 0   XYZ
    dof rx ry rz
    limits (-20.0 45.0)
           (-30.0 30.0)
           (-30.0 30.0)
  end
  begin
     id 15 
     name upperneck
     direction 0.345458 0.934587 -0.0848868   
     length 1.72805   
     axis 0 0 0   XYZ
    dof rx ry rz
    limits (-20.0 45.0)
           (-30.0 30.0)
           (-30.0 30.0)
  end
  begin
     id 16
     name head
     direction 0.13001 0.989848 -0.0574291  
     length 1.767  
     axis 0 0 0   XYZ
    dof rx ry rz
    limits (-20.0 45.0)
           (-30.0 30.0)
           (-30.0 30.0)
  end
  begin
     id 17 
     name lclavicle
     direction 0.952951 0.290122 0.0878234  
     length 3.54654  
     axis 0 0 0   XYZ
    dof ry rz
    limits (-20.0 10.0)
           (0.0 20.0)
  end
  begin
     id 18 
     name lhumerus
     direction 1 -4.48957e-011 -4.56525e-028   
     length 5.19807   
     axis 180 -30 -90   XYZ
    dof rx ry rz
    limits (-60.0 90.0)
           (-90.0 90.0)
           (-90.0 90.0)
  end
  begin
     id 19
     name lradius
     direction 1 -4.48979e-011 -2.0317e-027   
     length 3.0937   
     axis 180 -30 -90   XYZ
    dof rx
    limits (-10.0 170.0)
  end
  begin
     id 20
     name lwrist
     direction 1 -4.48953e-011 -3.05809e-027   
     length 1.54685   
     axis 8.48514e-016 90 90   XYZ
    dof ry
    limits (-180.0 0.0)
 end
  begin
     id 21 
     name lhand
     direction 1 -4.48952e-011 -6.11639e-027   
     length 0.672632   
     axis 3.9013e-015 90 90   XYZ
    dof rx rz
    limits (-90.0 90.0)
           (-45.0 45.0)
  end
  begin
     id 22 
     name lfingers
     direction 1 -4.48925e-011 -1.22426e-026   
     length 0.542293   
     axis 7.80276e-015 90 90   XYZ
    dof rx
    limits (0.0 90.0)
  end
  begin
     id 23
     name lthumb
     direction 0.707107 -6.3486e-011 0.707107   
     length 0.778628   
     axis -90 45 5.37419e-014   XYZ
    dof rx rz
    limits (-45.0 45.0)
           (-45.0 45.0)
  end
  begin
     id 24 
     name rclavicle
     direction -0.960732 0.273675 -0.0457849   
     length 3.52079  
     axis 0 0 0   XYZ 
    dof ry rz
    limits (-10.0 20.0)
           (-20.0 0.0)
  end
  begin
     id 25 
     name rhumerus
     direction -1 -4.48976e-011 -1.63613e-027  
     length 5.45222   
     axis 180 30 90   XYZ
    dof rx ry rz
    limits (-90.0 60.0)
           (-90.0 90.0)
           (-90.0 90.0)
  end
  begin
     id 26 
     name rradius
     direction -1 -4.48957e-011 -7.00033e-028   
     length 3.01284   
     axis 180 30 90   XYZ
    dof rx
    limits (-10.0 170.0)
  end
  begin
     id 27 
     name rwrist
     direction -1 -4.48983e-011 -3.05543e-027   
     length 1.50642   
     axis 8.48514e-016 -90 -90   XYZ
    dof ry
    limits (-180.0 0.0)
  end
  begin
     id 28
     name rhand
     direction -1 -4.48984e-011 -6.11072e-027   
     length 0.622296   
     axis 3.9013e-015 -90 -90   XYZ
    dof rx rz
    limits (-90.0 90.0)
           (-45.0 45.0)
  end
  begin
     id 29
     name rfingers
     direction -1 -4.48865e-011 -1.22637e-026   
     length 0.501711   
     axis 7.80276e-015 -90 -90   XYZ
    dof rx
    limits (0.0 90.0)
  end
  begin
     id 30
     name rthumb
     direction -0.707107 -6.34932e-011 0.707107   
     length 0.72036   
     axis -90 -45 -5.37419e-014   XYZ
    dof rx rz
    limits (-45.0 45.0)
           (-45.0 45.0)
  end
:hierarchy
  begin
    root lhipjoint rhipjoint lowerback
    lhipjoint lfemur
    lfemur ltibia
    ltibia lfoot
    lfoot ltoes
    rhipjoint rfemur
    rfemur rtibia
    rtibia rfoot
    rfoot rtoes
    lowerback upperback
    upperback thorax
    thorax lowerneck lclavicle rclavicle
    lowerneck upperneck
    upperneck head
    lclavicle lhumerus
    lhumerus lradius
    lradius lwrist
    lwrist lhand lthumb
    lhand lfingers
    rclavicle rhumerus
    rhumerus rradius
    rradius rwrist
    rwrist rhand rthumb
    rhand rfingers
  end

#!OML:ASF H:\Not Pregnant\Project 1\Capture day 1\Session 1\non-pregnant.ASF
:FULLY-SPECIFIED
:DEGREES
79
root -6.56649 17.0246 -22.0202 -166.864 3.64433 -181.19
lowerback -0.47801 -0.497136 -5.59757
upperback -6.50839 -0.433249 -0.71951
thorax -6.473 0.267839 2.37921
lowerneck 18.026 -12.5224 -29.6224
upperneck -10.8725 -18.5603 45.8409
head 2.79908 -10.7815 24.2036
rclavicle -4.48819e-015 1.94809e-014
rhumerus -39.4285 -16.4442 -75.5974
rradius 27.7413
rwrist 22.0728
rhand -9.40428 -1.06485
rfingers 7.12502
rthumb 16.5572 -30.3785
lclavicle -4.48819e-015 1.94809e-014
lhumerus -41.3082 -14.284 92.9684
lradius 32.1199
lwrist 35.5293
lhand -13.5989 -10.3013
lfingers 7.12502
lthumb 12.5159 19.3039
rfemur -39.1128 5.08926 16.6023
rtibia 49.5643
rfoot -10.1537 2.74871
rtoes -25.6652
lfemur -29.3774 22.79 -29.5523
ltibia 25.7696
lfoot -10.9978 -26.6842
ltoes 11.392
80
root -6.57825 17.0226 -21.9809 -166.944 3.67931 -181.302
lowerback -0.276733 -0.58739 -5.78333
upperback -6.48431 -0.581151 -0.746013
thorax -6.55173 0.203394 2.46391
lowerneck 17.8589 -12.4868 -29.6138
upperneck -10.7298 -18.5074 45.8233
head 2.84036 -10.7321 24.1855
rclavicle 5.80824e-015 7.15625e-015
rhumerus -39.6745 -16.8797 -75.2951
rradius 27.5618
rwrist 22.269
rhand -9.44877 -0.995481
rfingers 7.12502
rthumb 16.5144 -30.3127
lclavicle 5.80824e-015 7.15625e-015
lhumerus -41.0134 -14.4427 92.7564
lradius 32.0794
lwrist 35.4912
lhand -13.6095 -10.3061
lfingers 7.12502
lthumb 12.5056 19.2997
rfemur -39.4607 4.7466 16.6621
rtibia 50.7456
rfoot -10.2751 2.4868
rtoes -25.7743
lfemur -29.5159 23.3619 -29.9127
ltibia 25.6669
lfoot -10.4485 -27.3816
ltoes 12.5215
81
root -6.58931 17.0213 -21.9422 -167.035 3.68192 -181.411
lowerback -0.0841561 -0.676545 -5.95464
upperback -6.45974 -0.72687 -0.772484
thorax -6.62444 0.139377 2.54106
lowerneck 17.7122 -12.4515 -29.6112
upperneck -10.5891 -18.4632 45.7927
head 2.87867 -10.6895 24.1578
rclavicle -5.31438e-015 -1.98785e-014
rhumerus -39.9335 -17.3388 -74.9673
rradius 27.3501
rwrist 22.5067
rhand -9.48789 -0.926101
rfingers 7.12502
rthumb 16.4768 -30.2464
lclavicle -5.31438e-015 -1.98785e-014
lhumerus -40.6846 -14.5714 92.5173
lradius 32.0205
lwrist 35.4238
lhand -13.6005 -10.2968
lfingers 7.12502
lthumb 12.5142 19.3085
rfemur -39.7621 4.37558 16.7397
rtibia 52.0105
rfoot -10.441 2.26925
rtoes -25.8753
lfemur -29.6253 23.8806 -30.2535
ltibia 25.545
lfoot -9.88037 -28.039
ltoes 13.5978
82
root -6.59964 17.0205 -21.9041 -167.131 3.65641 -181.525
lowerback 0.0901325 -0.763609 -6.11999
upperback -6.43574 -0.868164 -0.800681
thorax -6.68703 0.0773962 2.61324
lowerneck 17.59 -12.4163 -29.6204
upperneck -10.4527 -18.4294 45.7541
head 2.91547 -10.6551 24.127
rclavicle 5.47279e-015 1.59028e-014
rhumerus -40.212 -17.8072 -74.6186
rradius 27.1264
rwrist 22.7652
rhand -9.52272 -0.847949
rfingers 7.12502
rthumb 16.4432 -30.1711
lclavicle 5.47279e-015 1.59028e-014
lhumerus -40.3314 -14.6615 92.2526
lradius 31.9584
lwrist 35.3212
lhand -13.5764 -10.2844
lfingers 7.12502
lthumb 12.5375 19.3194
rfemur -40.0173 3.97649 16.8239
rtibia 53.3372
rfoot -10.6205 2.09441
rtoes -25.9897
lfemur -29.6903 24.3426 -30.5839
ltibia 25.3597
lfoot -9.26794 -28.6561
ltoes 14.6394
83
root -6.60894 17.0199 -21.8668 -167.223 3.61079 -181.638
lowerback 0.242375 -0.845079 -6.27717
upperback -6.41181 -0.999845 -0.832517
thorax -6.73735 0.0197226 2.67674
lowerneck 17.4809 -12.3908 -29.6295
upperneck -10.3252 -18.4119 45.711
head 2.95376 -10.631 24.0874
rclavicle 7.51655e-015 1.90833e-014
rhumerus -40.5038 -18.2942 -74.2534
rradius 26.889
rwrist 23.0446
rhand -9.53499 -0.794355
rfingers 7.12502
rthumb 16.4314 -30.1185
lclavicle 7.51655e-015 1.90833e-014
lhumerus -39.9524 -14.7137 91.9559
lradius 31.9018
lwrist 35.1874
lhand -13.5379 -10.2699
lfingers 7.12502
lthumb 12.5747 19.3316
rfemur -40.241 3.56111 16.9178
rtibia 54.7375
rfoot -10.8005 1.96127
rtoes -26.1253
lfemur -29.7433 24.7508 -30.8995
ltibia 25.16
lfoot -8.64993 -29.2264
ltoes 15.6207
84
root -6.6179 17.0265 -21.8305 -167.315 3.53877 -181.747
lowerback 0.37576 -0.923795 -6.41586
upperback -6.39597 -1.12492 -0.864751
thorax -6.78568 -0.0348882 2.72921
lowerneck 17.4024 -12.3657 -29.6475
upperneck -10.1974 -18.4059 45.6585
head 2.99022 -10.616 24.0434
rclavicle -5.94646e-015 -2.10712e-014
rhumerus -40.8285 -18.7851 -73.8647
rradius 26.6429
rwrist 23.3369
rhand -9.52893 -0.752542
rfingers 7.12502
rthumb 16.4372 -30.0762
lclavicle -5.94646e-015 -2.10712e-014
lhumerus -39.5741 -14.7009 91.6319
lradius 31.8558
lwrist 35.0078
lhand -13.4887 -10.2661
lfingers 7.12502
lthumb 12.6221 19.3326
rfemur -40.394 3.11443 17.0251
rtibia 56.1699
rfoot -10.9821 1.87506
rtoes -26.2919
lfemur -29.7617 25.099 -31.1922
ltibia 24.9325
lfoot -8.02677 -29.7489
ltoes 16.5631
